<svg xmlns="http://www.w3.org/2000/svg" xmlns:xlink="http://www.w3.org/1999/xlink" version="1.1" x="0px" y="0px" viewBox="0 0 100 125" style="enable-background:new 0 0 100 100;" xml:space="preserve"><g><path d="M76.3,18.4c-0.3-0.4-0.7-0.6-1.1-0.6l-29.6-2.5c-0.6,0-1.3,0.3-1.6,0.8c-0.3,0.6-0.2,1.3,0.2,1.8l6.1,7.7L45.9,34   c-1.7,0.4-3.2,1-4.3,1.9c-6.5-5.3-28.2-0.6-30.7,0c-0.7,0.2-1.3,0.8-1.3,1.6v0.8H6.5c-0.9,0-1.6,0.7-1.6,1.6v43.3   c0,0.9,0.7,1.6,1.6,1.6h70.1c0.9,0,1.6-0.7,1.6-1.6V53.3l5.2-9.8l2.6,0.2v17.2c0,0.9,0.7,1.6,1.6,1.6s1.6-0.7,1.6-1.6V44l4,0.3   c0,0,0.1,0,0.1,0c0.6,0,1.1-0.3,1.4-0.9c0.3-0.6,0.2-1.3-0.2-1.8L76.3,18.4z M40,75.4c-6.7-3.1-21.5-0.6-27.1,0.6V38.7   c9.2-2,23.7-3.6,26.9-0.2c0.1,0.1,0.1,0.1,0.2,0.2V75.4z M70.3,76c-3.6-0.7-11.1-2.1-17.8-2.1c-3.6,0-7,0.4-9.3,1.5V38.8   c0.1-0.1,0.1-0.2,0.2-0.2c0.6-0.6,1.5-1.1,2.8-1.4l11.5,14.6l12.6,1.1V76z M76.3,50l-17-1.4L48.8,35.3l3.7-6.8l10.1,12.8   c0.3,0.4,0.7,0.6,1.1,0.6L80,43.2L76.3,50z"/></g><text x="0" y="115" fill="#000000" font-size="5px" font-weight="bold" font-family="'Helvetica Neue', Helvetica, Arial-Unicode, Arial, Sans-serif">Created by mikicon</text><text x="0" y="120" fill="#000000" font-size="5px" font-weight="bold" font-family="'Helvetica Neue', Helvetica, Arial-Unicode, Arial, Sans-serif">from the Noun Project</text></svg>