<svg xmlns:dc="http://purl.org/dc/elements/1.1/" xmlns:cc="http://creativecommons.org/ns#" xmlns:rdf="http://www.w3.org/1999/02/22-rdf-syntax-ns#" xmlns:svg="http://www.w3.org/2000/svg" xmlns="http://www.w3.org/2000/svg" xmlns:sodipodi="http://sodipodi.sourceforge.net/DTD/sodipodi-0.dtd" xmlns:inkscape="http://www.inkscape.org/namespaces/inkscape" version="1.1" x="0px" y="0px" viewBox="0 0 100 125"><title>Icon of a newspaper</title><g transform="translate(0,-952.36218)"><path style="" d="m 32.504617,971.35705 0,-8.99303 1.709762,0 3.562005,6.00557 0,-6.00557 1.632586,0 0,8.99303 -1.763193,0 -3.508575,-5.8645 0,5.8645 z" fill="#000000" fill-opacity="1" stroke="none"/><path style="" d="m 41.273086,971.35705 0,-8.99303 6.453166,0 0,1.52132 -4.69591,0 0,1.99368 4.369393,0 0,1.51519 -4.369393,0 0,2.44763 4.862137,0 0,1.51521 z" fill="#000000" fill-opacity="1" stroke="none"/><path style="" d="m 50.629285,971.35705 -2.077836,-8.99303 1.798812,0 1.312005,6.17733 1.591029,-6.17733 2.08971,0 1.525726,6.28161 1.335752,-6.28161 1.769129,0 -2.113457,8.99303 -1.864116,0 -1.733509,-6.72331 -1.727572,6.72331 z" fill="#000000" fill-opacity="1" stroke="none"/><path style="" d="m 60.418864,968.43094 1.709762,-0.17178 c 0.1029,0.593 0.311673,1.02855 0.626319,1.30664 0.314641,0.27808 0.739113,0.41714 1.273417,0.41714 0.565959,0 0.992409,-0.12371 1.279354,-0.37114 0.286933,-0.24743 0.430403,-0.53676 0.430409,-0.86801 -6e-6,-0.21266 -0.06036,-0.39362 -0.181069,-0.5429 -0.120718,-0.14927 -0.331469,-0.2791 -0.632256,-0.38954 -0.205809,-0.0736 -0.674806,-0.20447 -1.406992,-0.39259 -0.941955,-0.24129 -1.602904,-0.53778 -1.982849,-0.88949 -0.534302,-0.49484 -0.801452,-1.09806 -0.801451,-1.80965 -10e-7,-0.45802 0.125658,-0.88641 0.376978,-1.28515 0.251318,-0.39874 0.613455,-0.70238 1.086412,-0.91097 0.472952,-0.20856 1.043862,-0.31284 1.712731,-0.31285 1.092343,10e-6 1.914572,0.24743 2.466688,0.74226 0.552104,0.49486 0.842012,1.15532 0.869723,1.98141 l -1.757256,0.0799 c -0.0752,-0.46211 -0.236482,-0.79439 -0.483839,-0.99684 -0.247366,-0.20242 -0.618408,-0.30365 -1.113126,-0.30365 -0.510558,0 -0.910293,0.10838 -1.199209,0.32513 -0.186018,0.13905 -0.279026,0.32513 -0.279023,0.55822 -3e-6,0.21267 0.08707,0.39466 0.261213,0.54596 0.221633,0.19222 0.759891,0.3926 1.614776,0.60116 0.854876,0.2086 1.487131,0.42432 1.896768,0.64719 0.409624,0.2229 0.730204,0.52756 0.961741,0.91403 0.231523,0.38647 0.347288,0.86393 0.347296,1.43238 -8e-6,0.51531 -0.13853,0.99786 -0.415568,1.44772 -0.277051,0.44985 -0.668871,0.78418 -1.175461,1.00296 -0.506602,0.2188 -1.137868,0.32821 -1.8938,0.32821 -1.100266,0 -1.945252,-0.26275 -2.53496,-0.78828 -0.589711,-0.5255 -0.941953,-1.29129 -1.056728,-2.29732 z" fill="#000000" fill-opacity="1" stroke="none"/><rect style="" width="15" height="2" x="60" y="973.36218" fill="#000000" fill-opacity="1" fill-rule="nonzero" stroke="none"/><rect style="" width="15" height="1" x="60" y="980.36218" fill="#000000" fill-opacity="1" fill-rule="nonzero" stroke="none"/><rect style="" width="15" height="1" x="60" y="978.36218" fill="#000000" fill-opacity="1" fill-rule="nonzero" stroke="none"/><rect style="" width="15" height="1" x="60" y="976.36218" fill="#000000" fill-opacity="1" fill-rule="nonzero" stroke="none"/><g transform="translate(0,9.9999971)"><rect y="973.36218" x="52" height="8" width="6" style="" fill="#000000" fill-opacity="1" stroke="none"/><rect y="973.36218" x="26" height="2" width="24" style="" fill="#000000" fill-opacity="1" fill-rule="nonzero" stroke="none"/><rect y="980.36218" x="26" height="1" width="24" style="" fill="#000000" fill-opacity="1" fill-rule="nonzero" stroke="none"/><rect y="978.36218" x="26" height="1" width="24" style="" fill="#000000" fill-opacity="1" fill-rule="nonzero" stroke="none"/><rect y="976.36218" x="26" height="1" width="24" style="" fill="#000000" fill-opacity="1" fill-rule="nonzero" stroke="none"/></g><rect style="" width="15" height="2" x="60" y="983.36218" fill="#000000" fill-opacity="1" fill-rule="nonzero" stroke="none"/><rect style="" width="15" height="1" x="60" y="990.36218" fill="#000000" fill-opacity="1" fill-rule="nonzero" stroke="none"/><rect style="" width="15" height="1" x="60" y="988.36218" fill="#000000" fill-opacity="1" fill-rule="nonzero" stroke="none"/><rect style="" width="15" height="1" x="60" y="986.36218" fill="#000000" fill-opacity="1" fill-rule="nonzero" stroke="none"/><rect style="" width="32" height="3" x="26" y="973.36218" fill="#000000" fill-opacity="1" fill-rule="nonzero" stroke="none"/><rect style="" width="32" height="28" x="26" y="41" transform="translate(0,952.36218)" fill="#000015" fill-opacity="1" fill-rule="nonzero" stroke="none"/><rect style="" width="15" height="2" x="60" y="993.36224" fill="#000000" fill-opacity="1" fill-rule="nonzero" stroke="none"/><rect style="" width="15" height="1" x="60" y="1000.3622" fill="#000000" fill-opacity="1" fill-rule="nonzero" stroke="none"/><rect style="" width="15" height="1" x="60" y="998.36218" fill="#000000" fill-opacity="1" fill-rule="nonzero" stroke="none"/><rect style="" width="15" height="1" x="60" y="996.36218" fill="#000000" fill-opacity="1" fill-rule="nonzero" stroke="none"/><rect style="" width="15" height="1" x="60" y="1006.3622" fill="#000000" fill-opacity="1" fill-rule="nonzero" stroke="none"/><rect style="" width="15" height="1" x="60" y="1004.3622" fill="#000000" fill-opacity="1" fill-rule="nonzero" stroke="none"/><rect style="" width="15" height="1" x="60" y="1002.3622" fill="#000000" fill-opacity="1" fill-rule="nonzero" stroke="none"/><rect style="" width="15" height="1" x="60" y="1010.3622" fill="#000000" fill-opacity="1" fill-rule="nonzero" stroke="none"/><rect style="" width="15" height="1" x="60" y="1008.3622" fill="#000000" fill-opacity="1" fill-rule="nonzero" stroke="none"/><rect style="" width="15" height="2" x="60" y="1013.3622" fill="#000000" fill-opacity="1" fill-rule="nonzero" stroke="none"/><rect style="" width="15" height="1" x="60" y="1020.3622" fill="#000000" fill-opacity="1" fill-rule="nonzero" stroke="none"/><rect style="" width="15" height="1" x="60" y="1018.3622" fill="#000000" fill-opacity="1" fill-rule="nonzero" stroke="none"/><rect style="" width="15" height="1" x="60" y="1016.3622" fill="#000000" fill-opacity="1" fill-rule="nonzero" stroke="none"/><rect style="" width="15" height="8" x="26" y="71" transform="translate(0,952.36218)" fill="#000015" fill-opacity="1" fill-rule="nonzero" stroke="none"/><rect style="" width="15" height="18" x="60" y="1023.3622" fill="#000015" fill-opacity="1" fill-rule="nonzero" stroke="none"/><rect style="" width="15" height="2" x="43.0005" y="1023.3622" fill="#000000" fill-opacity="1" fill-rule="nonzero" stroke="none"/><rect style="" width="15" height="1" x="43" y="1030.3622" fill="#000000" fill-opacity="1" fill-rule="nonzero" stroke="none"/><rect style="" width="15" height="1" x="43" y="1028.3622" fill="#000000" fill-opacity="1" fill-rule="nonzero" stroke="none"/><rect style="" width="15" height="1" x="43" y="1026.3622" fill="#000000" fill-opacity="1" fill-rule="nonzero" stroke="none"/><rect style="" width="15" height="1" x="43" y="1036.3622" fill="#000000" fill-opacity="1" fill-rule="nonzero" stroke="none"/><rect style="" width="15" height="1" x="43" y="1034.3622" fill="#000000" fill-opacity="1" fill-rule="nonzero" stroke="none"/><rect style="" width="15" height="1" x="43" y="1032.3622" fill="#000000" fill-opacity="1" fill-rule="nonzero" stroke="none"/><rect style="" width="15" height="1" x="43" y="1040.3622" fill="#000000" fill-opacity="1" fill-rule="nonzero" stroke="none"/><rect style="" width="15" height="1" x="43" y="1038.3622" fill="#000000" fill-opacity="1" fill-rule="nonzero" stroke="none"/><rect style="" width="15" height="2" x="26" y="1033.3622" fill="#000000" fill-opacity="1" fill-rule="nonzero" stroke="none"/><rect style="" width="15" height="1" x="26" y="1040.3622" fill="#000000" fill-opacity="1" fill-rule="nonzero" stroke="none"/><rect style="" width="15" height="1" x="26" y="1038.3622" fill="#000000" fill-opacity="1" fill-rule="nonzero" stroke="none"/><rect style="" width="15" height="1" x="26" y="1036.3622" fill="#000000" fill-opacity="1" fill-rule="nonzero" stroke="none"/><path style="" d="M 21 5 L 21 94 L 23 94 L 78 94 L 80 94 L 80 5 L 78 5 L 23 5 L 21 5 z M 23 7 L 78 7 L 78 92 L 23 92 L 23 7 z " transform="translate(0,952.36218)" fill="#000015" fill-opacity="1" fill-rule="nonzero" stroke="none"/><rect style="" width="32" height="2" x="26" y="977.36218" fill="#000000" fill-opacity="1" fill-rule="nonzero" stroke="none"/><rect style="" width="32" height="1" x="26" y="980.36218" fill="#000000" fill-opacity="1" fill-rule="nonzero" stroke="none"/></g><text x="0" y="115" fill="#000000" font-size="5px" font-weight="bold" font-family="'Helvetica Neue', Helvetica, Arial-Unicode, Arial, Sans-serif">Created by Gonzalo Bravo</text><text x="0" y="120" fill="#000000" font-size="5px" font-weight="bold" font-family="'Helvetica Neue', Helvetica, Arial-Unicode, Arial, Sans-serif">from the Noun Project</text></svg>