<svg xmlns="http://www.w3.org/2000/svg" xmlns:xlink="http://www.w3.org/1999/xlink" version="1.1" x="0px" y="0px" viewBox="0 0 100 125" enable-background="new 0 0 100 100" xml:space="preserve"><polygon points="21.01,55.108 20.945,55.157 20.945,100 21.01,100 31.045,100 31.107,100 31.107,47.338 31.045,47.387 "/><polygon points="52.379,100 62.477,100 62.477,38.496 52.379,47.788 "/><polygon points="36.662,100 46.76,100 46.76,47.623 36.662,44.22 "/><polygon points="68.113,100 78.211,100 78.211,24.021 68.113,33.312 "/><polygon points="72.383,12.414 74.057,14.239 48.586,37.672 33.662,32.642 20.475,42.816 20.482,49.197 20.945,48.841 34.684,38.27   49.795,43.362 77.441,17.927 79.219,19.864 79.525,12.721 "/><text x="0" y="115" fill="#000000" font-size="5px" font-weight="bold" font-family="'Helvetica Neue', Helvetica, Arial-Unicode, Arial, Sans-serif">Created by Lauren Jochum</text><text x="0" y="120" fill="#000000" font-size="5px" font-weight="bold" font-family="'Helvetica Neue', Helvetica, Arial-Unicode, Arial, Sans-serif">from the Noun Project</text></svg>